<?xml version="1.0" encoding="UTF-8"?>
<svg id="Layer_1" data-name="Layer 1" xmlns="http://www.w3.org/2000/svg" viewBox="0 0 400 400">
  <g>
    <path d="M126.19,235.76c7.01-3.87,13.84-8.1,20.77-12.13-1.48-.03-3-.03-4.43,.45-3.03,.87-6.3,1.12-9.05,2.77-5.13,2.78-10.31,5.45-15.49,8.13,2.66,.74,5.45,.86,8.2,.78Z"/>
    <path d="M172.05,214.32c-.46-.32-.97-.44-1.51-.34-1.81,.62-3.35,1.82-5.04,2.67-1.44,.79-3.3,1.88-3.1,3.79,.15,3.13,1.07,6.39,3.1,8.83,2.7,.42,5.46,.04,8.18,.08,1.09,.05,2.71-.51,2.51-1.88-.11-1.5-.96-2.81-1.47-4.19-1.28-2.87-1.63-6.02-2.67-8.96Z"/>
    <path d="M65.96,184.45c.15,0,.35-.01,.55-.01,.78,0,1.56,.08,2.34,.21,19.58-53.77,71.21-92.28,131.67-92.28,49.67,0,93.38,25.99,118.26,65.08,1.71,.77,3.36,1.67,4.91,2.75,2.18,1.38,4.01,3.02,5.72,4.7-24.38-46.33-73-78-128.89-78-63.52,0-117.65,40.9-137.47,97.74,.96-.09,1.92-.17,2.91-.2Z"/>
  </g>
  <path d="M346.06,232.45c0-.14,0-.29,0-.43-.9,2.63-2.61,6.3-3.28,7.94l-.48,1.2c-.7,1.59-1.49,3.09-2.33,4.55-1.14,12.09-3.83,23.74-7.86,34.75l5.8,.02c5.27-15.04,8.15-31.21,8.15-48.03Z"/>
  <path d="M369.09,158.02c-3.02-1.56-6.55-1.29-9.83-1.15-3.34,.39-6.75,.67-9.91,1.9-1.51,.53-2.42,1.96-3.76,2.77l-4.24,3.07c-3.74,2.61-7.85,4.63-11.71,7.05-2.65-2.73-5.21-5.63-8.46-7.68-6.28-4.38-14.71-6.09-21.97-3.25-5.9,2.15-10.56,6.7-14.03,11.81-2.5,3.94-4.77,8.21-5.43,12.88,1.28-4.64,4.19-8.64,7.17-12.34,4.99-5.63,12.23-9.68,19.92-9.33,7.87-.32,15.32,3.58,20.86,8.93-13.42,7.96-26.96,15.72-40.43,23.56,.25-1.17,.53-2.34,.88-3.49,1.47-4.6,3.53-9.11,6.69-12.82,2.1-2.61,4.82-4.6,7.62-6.39-3.28,1.27-6.39,3.01-8.86,5.55-2.71,2.8-4.79,6.15-6.43,9.67-1.11,2.55-1.77,5.26-2.36,7.98-.88,.11-1.76,.23-2.64,.33-8.72,.87-17.42,1.86-26.13,2.84-2.64,.41-4.92-1.26-7.27-2.15-13.37-5.81-28.34-8.78-42.84-6.2-11.4,1.52-21.52,7.29-31.97,11.68-9.44,4.18-18.87,8.4-28.31,12.57-3.82,1.51-7.74,3.04-11.87,3.36,5.3-3.66,10.94-6.79,16.33-10.32,.72-.55,1.68-1.13,1.62-2.16,.29-1.33-1.18-1.88-2.13-2.32-4.98-.68-9.84,1.06-14.61,2.24-7.15,3.3-13.84,7.55-21.11,10.57-3.18,.65-6.5-.43-9.23-2.06-11.11-7.03-21.32-15.37-31.54-23.61-1.94-1.64-4.44-2.64-7-2.53-3.97,.13-7.89,.95-11.86,1.23-2.13,.43-4.83,.2-6.14,2.3-.82,1.7,.02,3.6,.99,5.05,7.86,13.25,15.67,26.53,23.41,39.84,.38,.72,1.14,2,.01,2.42-9.11,5.45-18.16,10.98-27.26,16.44-1.11,.67-2.44,1.64-1.81,3.14,6.86,.73,13.85-.32,20.31-2.72,5.83-2.51,11.33-5.72,17.16-8.2,2.88,1.01,5.91,1.57,8.96,1.58-.58,.2-1.15,.44-1.69,.75-10.37,5.5-20.45,11.53-30.47,17.65-2.23,1.29-4.33,2.82-6.68,3.9-.02,.29-.06,.88-.08,1.17,4.78-.4,9.57-1.57,13.74-4.02,12.77-6.74,25.49-13.62,38.26-20.36,4.82-.33,9.63-.64,14.46-.72,1.46-.03,2.89-.41,4.35-.41,12.38-.19,24.76-.27,37.14-.02,1.64,.03,3.25,.47,4.9,.49,7.17,.26,13.94,3.14,20.09,6.66-.1,.72,.18,1.73-.75,1.97-13.42,7.01-26.86,14-40.3,20.99-5.15,2.98-41.55,21.82-46.83,23.48-1.61,.6-9.07,4.19-13.7,6.81,4.82,.11,9.71,.15,11,.07,5.98-.7,13.71-1.7,19.71-2.29,5.22-.52,10.38-1.92,15.1-4.23,21.7-10.14,43.46-20.13,65.17-30.26,15.32-7.05,30.57-14.24,45.92-21.24l46.2-11.22c2.99,5.33,6.99,10.07,11.77,13.87,4.91,3.75,11.09,6.08,17.32,5.71,3.29-.33,6.49-1.34,9.47-2.77,6.39-3.85,11.18-9.94,14.15-16.72,.88-2.23,1.88-4.44,2.35-6.81-.74,1.72-1.26,3.54-2.29,5.12-3.31,6.02-8.05,11.49-14.34,14.47-5.95,2.93-13.08,3.24-19.31,1.03-6.38-2.18-11.83-6.51-16.07-11.68-.62-.86-1.65-1.62-1.63-2.76,2.55-1.35,5.24-2.41,7.82-3.7,4.69-2.33,9.3-4.82,13.73-7.62,.97-.63,1.94-1.37,2.49-2.42,1.12-1.72-.15-3.71-.16-5.57,4.59-2.11,9.94-4.22,12.35-8.97,1.27-2.25-.44-4.39-1.62-6.21-.39-1.54-.49-3.13-.86-4.68,3.5-2.53,7.05-5,10.67-7.37,1.76,5.59,3,11.41,2.75,17.31,.22,5.11-.61,10.19-1.99,15.1-.87,3.22-2.22,6.29-3.91,9.15-1.6,2.9-3.76,5.49-6.29,7.63-1.41,1.19-2.99,2.14-4.53,3.14,4.53-1.36,8.32-4.42,11.2-8.09,1.92-2.48,3.43-5.25,4.65-8.13,3.04-7.49,3.5-15.75,2.72-23.72-.63-4.51-2.01-8.85-3.46-13.15,11.74-8.11,23.5-16.21,35.28-24.28,1.74-1.2,3.77-2.41,4.36-4.59,.21-1.95-1.31-3.65-2.94-4.51Zm-101.69,43.01c-.44,.02-.78,.02-.9-.01,.3,0,.6,.01,.9,.01Zm-133.93,9.18c2.75-1.65,6.02-1.9,9.05-2.77,1.43-.48,2.94-.48,4.43-.45-6.92,4.03-13.76,8.26-20.77,12.13-2.75,.08-5.54-.04-8.2-.78,5.18-2.67,10.36-5.35,15.49-8.13Zm-68.77,42.67c-4.17,2.45-8.96,3.61-13.74,4.02,.02-.29,.06-.88,.08-1.17,2.35-1.08,4.45-2.61,6.68-3.9,10.02-6.12,20.1-12.15,30.47-17.65,1.83-1.06,3.96-1.34,5.99-1.82,4.61-.99,9.18-2.34,13.91-2.54-14.51,7.59-28.92,15.43-43.4,23.07Zm169.4-3.73c-35.64,16.46-71.34,32.81-106.95,49.33-3.88,1.84-7.87,3.46-12.04,4.47-4.66,.91-9.43,.92-14.12,1.62-1.46,.16-2.93,.25-4.39,.07,2.52-1.59,5.53-2.19,8.14-3.64,26.48-13.75,52.93-27.52,79.39-41.3,1.16-.63,2.25-1.53,2.78-2.77,.4-1.16-.24-2.29-.53-3.38,9.09-3.46,18.57-5.93,28.17-7.44,5.07-.79,10.2-1.23,15.33-.79,2.1,.37,4.12,1.17,5.83,2.46-.47,.53-.92,1.12-1.62,1.36Zm49.64-38.58c.27,1.42,.24,4.59,.19,7.31-1.25,.07-2.49,.26-3.71,.57-10.99,2.01-21.84,4.69-32.68,7.38l-27.21,6.19c-7.65,1.03-15.19,2.73-22.87,3.59-17.3,2.32-34.75,3.47-52.21,3.74-5.42,.74-10.92,.26-16.37,.62-2.89,.52-5.84,.35-8.76,.47-5.72,.49-11.47,.66-17.19,1.14-2.93,.38-5.9,.56-8.85,.46,2.96-2.34,6.66-3.6,9.93-5.49,2.73-1.56,6.49-2.47,7.56-5.81,.25-1.82-1.59-3.05-3.17-3.37-3.26-.49-6.48,.5-9.66,1.11-3.29,.86-6.64,1.42-9.9,2.35-4.59,1.95-8.67,5.01-13.25,6.91-7.17-12.75-17.9-30.8-25.17-43.49l17.78-1.7c4.67,3.28,16.63,11.95,21.26,15.32,4.68,3.39,9.31,6.87,14.27,9.84,1.4,.85,2.93,1.45,4.53,1.81,8.68,2.05,17.69,3.19,26.6,2.24,5.52-.68,10.67-2.97,15.71-5.2,11.57-5.17,23.18-10.27,34.75-15.45,1.16-.48,2.33-.95,3.5-1.39l-.12,.07c-5.78,3.37-8.17,10.51-5.58,16.68l4.7,11.23c18.95-4.35,37.37-10.78,54.91-19.18l12.23-5.86c3.68-.28,9.26-1.21,13.63-1.61,1.05-.03,2.1-.1,3.15-.18,0,0,.01,0,.02,0,0,0,0,0,0,0,4.14-.35,8.26-1.06,12.42-1.17-.62,3.6-.76,7.26-.47,10.9Zm17.44-4.37c-.34,2.26-.15,4.56-.04,6.83-.85,.49-1.69,1-2.51,1.53l-4.25,1.65c-2.61,.26-5.21,.81-7.82,.97-.69-4.69-.3-9.5-.33-14.25,.14-1.3-.27-2.93,.9-3.87,7.29-.7,14.54-2.26,21.9-1.97,2.72,0,5.35,1.03,7.53,2.62-.65,.63-1.41,1.52-2.04,1.98-2.85-.45-5.55-2.21-8.51-1.69-2.79,.71-4.26,3.59-4.81,6.2Zm18.97,4.06c-2.45,3.01-6.14,4.55-9.53,6.23-1.46,.82-3.22,.52-4.54-.4,2.13-1.46,4.66-2.19,6.81-3.62-2.82,.68-5.59,1.79-8.49,1.99-.05-.61-.1-1.21-.15-1.82,1.84-.41,3.62-1.04,5.46-1.46,1.37-.33,2.72-.75,4.05-1.23-3.23-1.18-6.73-.57-10.09-.91,.04-.81,.09-1.63,.15-2.45,.27-1.93,1.65-4.49,3.98-3.99,3.55,.82,7.01,2.03,10.5,3.07,1.88,.52,3.3,2.89,1.86,4.59Zm10.65-21.89c-1.58-2.26-3.05-4.6-4.84-6.7,1.46,2.38,3.08,4.7,3.88,7.41-3.99,2.7-7.94,5.45-11.94,8.13-1.76-1.1-3.65-2.05-5.71-2.43-5.91-1.1-11.86,.4-17.75,.67,1.3-1.1,2.8-1.92,4.27-2.77,10.37-5.93,20.59-12.13,31.03-17.94,2.69,2.91,4.92,6.19,6.93,9.6-1.89,1.44-3.89,2.74-5.87,4.05Zm6.42-4.37c-1.73-3.3-3.48-6.59-5.59-9.68-.56-.64,.56-1.06,.96-1.38l13.01-7.64c2.15-1.23,3.2-3.92,5.78-4.45,4.69-1.16,9.6-1.76,14.42-1.19,1.52,.11,2.7,1.06,3.67,2.16-10.61,7.59-21.51,14.79-32.26,22.18Z"/>
  <path d="M332.11,280.46l-145.79-.5c-4.04,1.88-8.08,3.75-12.12,5.63l155.7,.54,5.9,.02c.74-1.87,1.44-3.76,2.11-5.66l-5.8-.02Z"/>
  <path d="M130.18,279.76l-61.58-.21-5.79-.02c.65,1.91,1.35,3.8,2.08,5.68l5.89,.02,48.48,.17c3.83-1.95,7.6-3.9,10.93-5.63Z"/>
</svg>