<?xml version="1.0" encoding="utf-8"?>
<!-- Generator: Adobe Illustrator 26.5.0, SVG Export Plug-In . SVG Version: 6.00 Build 0)  -->
<svg version="1.1" id="Layer_1" xmlns="http://www.w3.org/2000/svg" xmlns:xlink="http://www.w3.org/1999/xlink" x="0px" y="0px"
	 viewBox="0 0 384 128" style="enable-background:new 0 0 384 128;" xml:space="preserve">
<g>
	<g>
		<g>
			<g>
				<g>
					<path d="M194.86,83.75h11.48c2,0,3.49,1.23,3.49,3.3v3.62c0,2-1.49,3.21-3.54,3.21h-11.44V83.75z M205.97,92.33
						c1.42,0,2.08-0.71,2.08-2.05v-2.91c0-1.29-0.68-2.08-2.18-2.08h-9.22v7.04H205.97z"/>
					<path d="M223.46,83.75h1.79v10.13h-1.79V83.75z"/>
					<path d="M252.2,93.88l-3.2-3.94h-8.16v3.94h-1.79V83.75h12.08c1.57,0,2.92,1.29,2.92,2.84v0.34c0,1.68-1.18,2.91-2.86,3
						l3.15,3.94H252.2z M240.84,88.39h9.93c0.97,0,1.52-0.73,1.52-1.49v-0.13c0-0.86-0.73-1.49-1.52-1.49h-9.93V88.39z"/>
					<path d="M267.95,83.75h14.15v1.53h-12.36v2.67h11.21v1.55h-11.21v2.83h12.36v1.55h-14.15V83.75z"/>
					<path d="M295.13,90.67v-3.62c0-2.04,1.44-3.3,3.51-3.3h9.77v1.53h-9.29c-1.62,0-2.21,0.95-2.21,2.08v2.91
						c0,1.31,0.87,2.05,2.08,2.05h9.42v1.55h-9.74C296.67,93.88,295.13,92.65,295.13,90.67z"/>
				</g>
			</g>
			<g>
				<polygon points="329,93.88 329,83.75 320.73,83.75 320.73,85.29 327.24,85.29 327.24,93.88 				"/>
			</g>
			<polygon points="333.08,82.88 333.08,85.29 335.5,85.29 			"/>
		</g>
	</g>
</g>
<g>
	<polygon points="175.86,56.15 156.37,56.15 156.37,48.02 149.32,48.02 149.32,70.57 156.37,70.57 156.37,62.3 175.86,62.3 
		175.86,70.57 182.87,70.57 182.87,48.02 175.86,48.02 	"/>
	<path d="M202.47,48.02l-17.08,22.55h8.31l3.09-4.14h17.44l3.09,4.14h8.34l-17.01-22.55H202.47z M201.32,60.32l4.21-5.61l4.17,5.61
		H201.32z"/>
	<path d="M293.82,64.45h-17.26c-1.65,0-2.59-0.83-2.59-2.34v-5.61c0-1.65,0.86-2.41,2.84-2.41h23.38v-6.08h-24.82
		c-5.25,0-8.42,2.77-8.42,7.44v7.8c0,4.53,3.27,7.3,8.45,7.3h25.5l0.04-12.44h-7.12V64.45z"/>
	<path d="M320.18,48.02L303.1,70.57h8.31l3.09-4.14h17.44l3.09,4.14h8.34l-17.01-22.55H320.18z M319.03,60.32l4.21-5.61l4.17,5.61
		H319.03z"/>
	<path d="M374.6,62.8c3.49-0.72,5.57-3.38,5.57-6.91v-1.08c0-3.78-3.06-6.8-7.3-6.8H345.9v22.55h7.05v-7.55h12.8l6.69,7.55h8.6
		L374.6,62.8z M373.16,55.64c0,0.76-0.54,1.26-1.47,1.26h-18.74V54.1h18.74c0.83,0,1.47,0.58,1.47,1.29V55.64z"/>
	<polygon points="256.13,48.02 256.13,62.19 235.06,48.76 233.9,48.02 228.19,48.02 228.19,52.07 228.19,70.57 235.06,70.57 
		235.06,56.45 257.21,70.57 263,70.57 263,48.02 257.95,48.02 	"/>
</g>
<g>
	<g>
		<path d="M38.93,73.24c3.01-1.66,5.95-3.48,8.92-5.21c-0.64-0.01-1.29-0.01-1.9,0.19c-1.3,0.38-2.71,0.48-3.89,1.19
			c-2.2,1.19-4.43,2.34-6.65,3.49C36.55,73.23,37.75,73.28,38.93,73.24z"/>
		<g>
			<path d="M58.63,64.03c-0.2-0.14-0.42-0.19-0.65-0.15c-0.78,0.27-1.44,0.78-2.17,1.15c-0.62,0.34-1.42,0.81-1.33,1.63
				c0.06,1.34,0.46,2.74,1.33,3.79c1.16,0.18,2.34,0.02,3.51,0.04c0.47,0.02,1.17-0.22,1.08-0.81c-0.05-0.64-0.41-1.21-0.63-1.8
				C59.23,66.65,59.07,65.3,58.63,64.03z"/>
		</g>
		<path d="M13.07,51.21c0.06,0,0.15,0,0.24,0c0.34,0,0.67,0.03,1,0.09c8.41-23.09,30.59-39.63,56.55-39.63
			c21.33,0,40.11,11.16,50.79,27.95c0.73,0.33,1.44,0.72,2.11,1.18c0.93,0.59,1.72,1.29,2.45,2.02
			c-10.47-19.9-31.35-33.5-55.35-33.5c-27.28,0-50.53,17.57-59.04,41.98C12.23,51.25,12.64,51.22,13.07,51.21z"/>
	</g>
	<path d="M133.37,71.82c0-0.06,0-0.12,0-0.18c-0.39,1.13-1.12,2.71-1.41,3.41l-0.21,0.52c-0.3,0.68-0.64,1.33-1,1.95
		c-0.49,5.19-1.64,10.2-3.37,14.92l2.49,0.01C132.13,85.99,133.37,79.05,133.37,71.82z"/>
	<g>
		<path d="M143.25,39.86c-1.3-0.67-2.81-0.56-4.22-0.49c-1.43,0.17-2.9,0.29-4.26,0.82c-0.65,0.23-1.04,0.84-1.61,1.19l-1.82,1.32
			c-1.61,1.12-3.37,1.99-5.03,3.03c-1.14-1.17-2.24-2.42-3.63-3.3c-2.7-1.88-6.32-2.61-9.44-1.39c-2.53,0.92-4.54,2.88-6.03,5.07
			c-1.07,1.69-2.05,3.53-2.33,5.53c0.55-1.99,1.8-3.71,3.08-5.3c2.14-2.42,5.25-4.16,8.55-4.01c3.38-0.14,6.58,1.54,8.96,3.83
			c-5.76,3.42-11.58,6.75-17.37,10.12c0.11-0.5,0.23-1,0.38-1.5c0.63-1.98,1.52-3.91,2.87-5.51c0.9-1.12,2.07-1.98,3.27-2.75
			c-1.41,0.55-2.75,1.29-3.81,2.38c-1.16,1.2-2.06,2.64-2.76,4.15c-0.48,1.1-0.76,2.26-1.01,3.43c-0.38,0.05-0.76,0.1-1.13,0.14
			c-3.74,0.37-7.48,0.8-11.22,1.22c-1.13,0.18-2.11-0.54-3.12-0.92c-5.74-2.5-12.17-3.77-18.4-2.66c-4.9,0.65-9.24,3.13-13.73,5.02
			c-4.05,1.79-8.1,3.61-12.16,5.4c-1.64,0.65-3.32,1.3-5.1,1.44c2.28-1.57,4.7-2.92,7.01-4.43c0.31-0.23,0.72-0.49,0.7-0.93
			c0.13-0.57-0.51-0.81-0.92-1c-2.14-0.29-4.23,0.45-6.28,0.96c-3.07,1.42-5.94,3.24-9.07,4.54c-1.36,0.28-2.79-0.19-3.96-0.88
			c-4.77-3.02-9.16-6.6-13.55-10.14c-0.83-0.71-1.91-1.13-3.01-1.09c-1.71,0.06-3.39,0.41-5.09,0.53c-0.91,0.18-2.07,0.09-2.64,0.99
			c-0.35,0.73,0.01,1.55,0.42,2.17c3.37,5.69,6.73,11.39,10.06,17.11c0.16,0.31,0.49,0.86,0,1.04c-3.91,2.34-7.8,4.71-11.71,7.06
			C3.7,82.34,3.13,82.75,3.4,83.4c2.95,0.31,5.95-0.14,8.72-1.17c2.5-1.08,4.87-2.46,7.37-3.52c1.24,0.43,2.54,0.67,3.85,0.68
			c-0.25,0.09-0.49,0.19-0.73,0.32c-4.45,2.36-8.78,4.95-13.09,7.58c-0.96,0.55-1.86,1.21-2.87,1.67c-0.01,0.13-0.03,0.38-0.04,0.5
			c2.05-0.17,4.11-0.67,5.9-1.73c5.49-2.89,10.95-5.85,16.43-8.74c2.07-0.14,4.14-0.27,6.21-0.31c0.63-0.01,1.24-0.18,1.87-0.18
			c5.32-0.08,10.63-0.12,15.95-0.01c0.71,0.01,1.39,0.2,2.1,0.21c3.08,0.11,5.99,1.35,8.63,2.86c-0.04,0.31,0.08,0.74-0.32,0.85
			c-5.77,3.01-11.54,6.01-17.31,9.01c-2.21,1.28-17.85,9.37-20.11,10.08c-0.69,0.26-3.89,1.8-5.88,2.93
			c2.07,0.05,4.17,0.06,4.73,0.03c2.57-0.3,5.89-0.73,8.47-0.98c2.24-0.22,4.46-0.83,6.48-1.81c9.32-4.35,18.67-8.65,27.99-13
			c6.58-3.03,13.13-6.12,19.72-9.12l19.84-4.82c1.28,2.29,3,4.32,5.05,5.96c2.11,1.61,4.76,2.61,7.44,2.45
			c1.41-0.14,2.79-0.58,4.07-1.19c2.75-1.65,4.8-4.27,6.08-7.18c0.38-0.96,0.81-1.91,1.01-2.92c-0.32,0.74-0.54,1.52-0.98,2.2
			c-1.42,2.58-3.46,4.93-6.16,6.22c-2.56,1.26-5.62,1.39-8.29,0.44c-2.74-0.94-5.08-2.8-6.9-5.02c-0.27-0.37-0.71-0.69-0.7-1.19
			c1.09-0.58,2.25-1.03,3.36-1.59c2.01-1,3.99-2.07,5.9-3.27c0.42-0.27,0.83-0.59,1.07-1.04c0.48-0.74-0.06-1.59-0.07-2.39
			c1.97-0.9,4.27-1.81,5.31-3.85c0.55-0.97-0.19-1.89-0.7-2.67c-0.17-0.66-0.21-1.35-0.37-2.01c1.5-1.09,3.03-2.15,4.58-3.17
			c0.76,2.4,1.29,4.9,1.18,7.43c0.1,2.2-0.26,4.38-0.86,6.49c-0.38,1.38-0.95,2.7-1.68,3.93c-0.69,1.25-1.61,2.36-2.7,3.28
			c-0.6,0.51-1.28,0.92-1.95,1.35c1.94-0.58,3.57-1.9,4.81-3.47c0.82-1.07,1.47-2.25,2-3.49c1.31-3.22,1.5-6.76,1.17-10.19
			c-0.27-1.94-0.87-3.8-1.49-5.65c5.04-3.48,10.09-6.96,15.15-10.43c0.75-0.51,1.62-1.04,1.87-1.97
			C144.61,40.95,143.95,40.23,143.25,39.86z M99.58,58.33c-0.19,0.01-0.33,0.01-0.39-0.01C99.32,58.33,99.45,58.33,99.58,58.33z
			 M42.06,62.27c1.18-0.71,2.59-0.82,3.89-1.19c0.61-0.2,1.26-0.2,1.9-0.19c-2.97,1.73-5.91,3.55-8.92,5.21
			c-1.18,0.04-2.38-0.02-3.52-0.34C37.64,64.61,39.86,63.46,42.06,62.27z M12.53,80.59c-1.79,1.05-3.85,1.55-5.9,1.73
			c0.01-0.13,0.03-0.38,0.04-0.5c1.01-0.46,1.91-1.12,2.87-1.67c4.3-2.63,8.63-5.22,13.09-7.58c0.79-0.46,1.7-0.57,2.57-0.78
			c1.98-0.42,3.94-1,5.98-1.09C24.93,73.95,18.75,77.31,12.53,80.59z M85.28,78.99c-15.31,7.07-30.64,14.09-45.93,21.19
			c-1.66,0.79-3.38,1.49-5.17,1.92c-2,0.39-4.05,0.4-6.06,0.7c-0.63,0.07-1.26,0.11-1.88,0.03c1.08-0.68,2.37-0.94,3.5-1.56
			c11.37-5.9,22.73-11.82,34.1-17.74c0.5-0.27,0.97-0.66,1.2-1.19c0.17-0.5-0.1-0.98-0.23-1.45c3.91-1.48,7.97-2.55,12.1-3.2
			c2.18-0.34,4.38-0.53,6.59-0.34c0.9,0.16,1.77,0.5,2.5,1.06C85.78,78.63,85.58,78.89,85.28,78.99z M106.6,62.42
			c0.12,0.61,0.1,1.97,0.08,3.14c-0.54,0.03-1.07,0.11-1.59,0.24c-4.72,0.86-9.38,2.01-14.03,3.17l-11.68,2.66
			c-3.28,0.44-6.52,1.17-9.82,1.54c-7.43,1-14.92,1.49-22.42,1.61c-2.33,0.32-4.69,0.11-7.03,0.26c-1.24,0.23-2.51,0.15-3.76,0.2
			c-2.46,0.21-4.93,0.28-7.38,0.49c-1.26,0.16-2.53,0.24-3.8,0.2c1.27-1,2.86-1.55,4.26-2.36c1.17-0.67,2.79-1.06,3.25-2.5
			c0.11-0.78-0.68-1.31-1.36-1.45c-1.4-0.21-2.78,0.22-4.15,0.48c-1.41,0.37-2.85,0.61-4.25,1.01c-1.97,0.84-3.72,2.15-5.69,2.97
			C14.14,68.6,9.53,60.85,6.41,55.4l7.64-0.73c2.01,1.41,7.14,5.13,9.13,6.58c2.01,1.46,4,2.95,6.13,4.22
			c0.6,0.36,1.26,0.62,1.95,0.78c3.73,0.88,7.6,1.37,11.42,0.96c2.37-0.29,4.58-1.28,6.75-2.23c4.97-2.22,9.95-4.41,14.92-6.63
			c0.5-0.21,1-0.41,1.51-0.6l-0.05,0.03c-2.48,1.45-3.51,4.51-2.4,7.16l2.02,4.82c8.14-1.87,16.05-4.63,23.58-8.24l5.25-2.52
			c1.58-0.12,3.98-0.52,5.85-0.69c0.45-0.01,0.9-0.04,1.35-0.08c0,0,0.01,0,0.01,0c0,0,0,0,0,0c1.78-0.15,3.55-0.46,5.33-0.5
			C106.54,59.28,106.48,60.86,106.6,62.42z M114.09,60.54c-0.15,0.97-0.06,1.96-0.02,2.94c-0.37,0.21-0.72,0.43-1.08,0.66
			l-1.83,0.71c-1.12,0.11-2.24,0.35-3.36,0.41c-0.3-2.02-0.13-4.08-0.14-6.12c0.06-0.56-0.12-1.26,0.38-1.66
			c3.13-0.3,6.24-0.97,9.41-0.85c1.17,0,2.3,0.44,3.23,1.13c-0.28,0.27-0.6,0.65-0.87,0.85c-1.22-0.19-2.38-0.95-3.66-0.73
			C114.96,58.19,114.33,59.42,114.09,60.54z M122.24,62.29c-1.05,1.29-2.64,1.95-4.09,2.67c-0.63,0.35-1.38,0.23-1.95-0.17
			c0.92-0.63,2-0.94,2.92-1.55c-1.21,0.29-2.4,0.77-3.65,0.86c-0.02-0.26-0.04-0.52-0.07-0.78c0.79-0.18,1.55-0.45,2.34-0.63
			c0.59-0.14,1.17-0.32,1.74-0.53c-1.39-0.51-2.89-0.24-4.33-0.39c0.02-0.35,0.04-0.7,0.07-1.05c0.12-0.83,0.71-1.93,1.71-1.71
			c1.52,0.35,3.01,0.87,4.51,1.32C122.25,60.54,122.86,61.56,122.24,62.29z M126.82,52.89c-0.68-0.97-1.31-1.98-2.08-2.88
			c0.63,1.02,1.32,2.02,1.67,3.18c-1.71,1.16-3.41,2.34-5.13,3.49c-0.76-0.47-1.57-0.88-2.45-1.05c-2.54-0.47-5.09,0.17-7.62,0.29
			c0.56-0.47,1.2-0.83,1.84-1.19c4.45-2.55,8.84-5.21,13.33-7.71c1.16,1.25,2.11,2.66,2.98,4.12
			C128.53,51.77,127.67,52.33,126.82,52.89z M129.57,51.01c-0.74-1.42-1.5-2.83-2.4-4.16c-0.24-0.28,0.24-0.46,0.41-0.59l5.59-3.28
			c0.92-0.53,1.38-1.69,2.48-1.91c2.01-0.5,4.12-0.76,6.19-0.51c0.65,0.05,1.16,0.45,1.58,0.93
			C138.87,44.75,134.19,47.84,129.57,51.01z"/>
	</g>
	<path d="M127.37,92.44l-62.61-0.22c-1.73,0.81-3.47,1.61-5.21,2.42l66.87,0.23l2.54,0.01c0.32-0.8,0.62-1.61,0.91-2.43
		L127.37,92.44z"/>
	<path d="M40.65,92.14L14.2,92.05l-2.49-0.01c0.28,0.82,0.58,1.63,0.89,2.44l2.53,0.01l20.82,0.07
		C37.6,93.72,39.22,92.88,40.65,92.14z"/>
</g>
</svg>
