<?xml version="1.0" encoding="utf-8"?>
<!-- Generator: Adobe Illustrator 26.5.0, SVG Export Plug-In . SVG Version: 6.00 Build 0)  -->
<svg version="1.1" id="Layer_1" xmlns="http://www.w3.org/2000/svg" xmlns:xlink="http://www.w3.org/1999/xlink" x="0px" y="0px"
	 viewBox="0 0 24 24" style="enable-background:new 0 0 24 24;" xml:space="preserve">
<path d="M19.07,0.02c-2.32-0.01-4.63,0-6.95,0C9.68,0.02,7.25,0,4.81,0.02C2.18,0.05,0.03,2.19,0.02,4.84C0,9.59,0,14.35,0.02,19.1
	c0.01,2.72,2.14,4.87,4.85,4.88c4.75,0.02,9.51,0.02,14.26,0c2.71-0.01,4.84-2.16,4.85-4.88c0.02-4.71,0.01-9.43,0-14.14
	C23.98,2.16,21.85,0.03,19.07,0.02z M6.97,18.98c-1.92-0.06-1.93,0-1.93-1.92c0-1.19,0-2.39,0-3.58c0-1.51,0.05-3.03-0.02-4.54
	c-0.04-0.78,0.24-0.9,0.94-0.9c2,0.02,2-0.02,2,1.99c0,2.63-0.03,5.26,0.02,7.88C8,18.7,7.86,19,6.97,18.98z M6.48,6.72
	C5.6,6.7,4.82,5.9,4.81,5.01C4.79,4.03,5.57,3.24,6.53,3.25c0.9,0.01,1.66,0.78,1.67,1.69C8.22,5.89,7.4,6.74,6.48,6.72z
	 M19.35,18.97c-2.32,0.18-2.31,0.2-2.31-2.14c0-1.2,0.03-2.4-0.01-3.59c-0.05-1.4-0.83-2.29-1.94-2.3c-1.17-0.01-2.06,0.91-2.11,2.3
	c-0.05,1.6-0.05,3.2,0,4.79c0.02,0.69-0.1,0.96-0.89,0.95c-2.04-0.03-2.04,0.02-2.04-2.06c0-2.64,0.03-5.27-0.02-7.91
	c-0.02-0.81,0.24-1.08,1-0.96c0.16,0.02,0.32,0.02,0.48,0c1.08-0.13,1.91,0,1.43,1.58C14,8.52,15.12,8,16.47,8.05
	c1.92,0.08,3.33,1.43,3.42,3.47c0.11,2.27,0.04,4.55,0.07,6.83C19.97,18.82,19.81,18.93,19.35,18.97z"/>
</svg>
