<?xml version="1.0" encoding="UTF-8"?>
<svg id="Layer_1" data-name="Layer 1" xmlns="http://www.w3.org/2000/svg" viewBox="0 0 566 128">
  <path d="M144.9,63.73c.81-.88,1.24-1.91,1.92-2.81,2.72-3.62,6.51-4.35,10.64-3.7,4.94,.78,7.91,4.21,8.74,9.64,.21,1.38,.3,2.76,.3,4.15,0,7.21-.02,14.42,.02,21.63,0,1.05-.27,1.38-1.33,1.35-2.53-.08-5.06-.07-7.59,0-.99,.03-1.28-.25-1.28-1.26,.04-6.87,.02-13.75,.03-20.62,0-1.31-.13-2.61-.54-3.86-.61-1.86-1.78-2.72-3.74-2.84-1.71-.1-3.38,.04-4.85,1.04-1.49,1.01-2.31,2.36-2.31,4.23,.03,7.29-.01,14.59,.04,21.88,0,1.11-.28,1.47-1.41,1.43-2.57-.08-5.15-.05-7.72-.01-.85,.01-1.19-.22-1.19-1.13,.02-16.19,.02-32.38,0-48.58,0-.92,.33-1.12,1.17-1.1,2.66,.05,5.32,.06,7.97,0,.99-.03,1.18,.32,1.17,1.23-.04,5.99-.02,11.98-.02,17.96,0,.46,0,.92,0,1.39Z"/>
  <path d="M225.02,63.89c.62-1.32,1.29-2.62,2.28-3.71,3.08-3.38,7-3.64,11.07-2.75,4.05,.88,6.2,3.83,7.27,7.64,.54,1.91,.78,3.87,.78,5.86,0,7.21-.03,14.42,.02,21.62,0,1.11-.28,1.47-1.41,1.43-2.49-.08-4.98-.09-7.46,0-1.24,.05-1.45-.42-1.45-1.53,.03-7.29,0-14.58-.03-21.88,0-1.07-.27-2.07-.71-3.05-.47-1.04-1.26-1.72-2.33-1.96-1.94-.43-3.87-.33-5.65,.64-1.88,1.03-2.7,2.68-2.7,4.79,0,7.17-.02,14.33,.03,21.5,0,1.16-.29,1.51-1.47,1.47-2.57-.09-5.14-.05-7.72-.01-.76,.01-1.02-.21-1.01-1,.02-11.38,.02-22.76,0-34.14,0-.78,.22-1.01,1-1,2.7,.04,5.4,.06,8.1,0,.94-.02,1.12,.34,1.09,1.18-.05,1.59-.02,3.18-.02,4.77,.1,.04,.21,.07,.31,.11Z"/>
  <path d="M511.54,76.28c.09,1.37-.1,3.01,.16,4.65,.48,3.14,1.99,5.05,4.53,5.54,3.29,.63,5.84-.49,7.4-3.24q1.05-1.86,3.02-1c1.58,.69,3.16,1.4,4.76,2.04,.8,.32,.97,.69,.64,1.51-2.01,5.03-5.75,7.87-11.03,8.73-3.69,.6-7.32,.29-10.76-1.24-5.11-2.27-7.7-6.48-8.77-11.75-.98-4.83-.79-9.61,.86-14.31,2.07-5.9,7.14-9.74,13.38-10.1,4.16-.24,8.18,.13,11.67,2.73,2.04,1.52,3.53,3.46,4.51,5.81,.28,.67,.13,.96-.5,1.22-2.18,.9-4.35,1.82-6.49,2.8-.76,.35-1.03,.24-1.34-.57-.88-2.3-2.5-3.75-5.07-3.93-2.44-.17-4.51,.44-5.83,2.69-.84,1.43-1.06,3-1.12,4.61-.05,1.18,0,2.36,0,3.8Z"/>
  <path d="M550.78,76.07c0,2.87,.04,5.73-.02,8.6-.02,.95,.18,1.36,1.24,1.29,1.47-.1,2.95,0,4.43-.04,.7-.02,.97,.19,.95,.92-.04,2.06-.02,4.13-.01,6.2,0,.5-.01,.94-.7,.92-2.9-.07-5.82,.24-8.69-.39-4.6-1.01-7.25-4.12-7.33-8.84-.09-5.77-.07-11.55-.02-17.32,.01-1.18-.24-1.66-1.51-1.57-1.12,.08-2.58,.5-3.31-.18-.8-.74-.2-2.23-.27-3.39-.06-1.09,.06-2.2-.03-3.29-.08-1.01,.34-1.24,1.23-1.16,.63,.06,1.27,.04,1.9,0,1.61-.1,2.44-.81,2.79-2.41,.44-2.04,.18-4.12,.18-6.17,0-.93,.22-1.25,1.19-1.22,2.23,.07,4.47,.07,6.7,0,.97-.03,1.33,.21,1.3,1.25-.08,2.48,.01,4.97-.04,7.46-.02,.9,.27,1.16,1.15,1.13,1.64-.06,3.29,.03,4.93-.04,.86-.03,1.07,.29,1.05,1.09-.05,1.98-.04,3.96,0,5.94,.02,.76-.22,1.05-1,1.02-1.6-.05-3.21,.05-4.81-.04-1.09-.06-1.34,.34-1.32,1.37,.06,2.95,.02,5.9,.02,8.85Z"/>
  <path d="M342.57,65.49c.2-.57,.38-1.15,.59-1.72,1.68-4.49,5.43-6.23,9.93-5.93,.52,.03,.63,.29,.63,.73,0,2.66-.02,5.31,0,7.97,0,.8-.45,.86-1.07,.86-1.94,0-3.87-.04-5.8,.31-3.12,.56-4.48,2.08-4.49,5.26-.02,6.53-.03,13.07,.02,19.6,0,1.11-.3,1.46-1.42,1.42-2.57-.08-5.14-.05-7.72,0-.86,.01-1.19-.22-1.19-1.14,.03-11.34,.02-22.68,0-34.01,0-.79,.27-1,1.02-.99,2.78,.04,5.57,.04,8.35,0,.73,0,.94,.24,.93,.95-.04,2.22-.01,4.44-.01,6.66l.2,.04Z"/>
  <path d="M447.49,65.46c.75-1.46,1.24-2.95,2.23-4.23,2.19-2.83,5.18-3.56,8.54-3.38,.44,.02,.59,.21,.59,.62,0,2.74-.01,5.48,0,8.22,0,.82-.54,.69-1.04,.7-1.89,.04-3.79-.06-5.67,.3-3.31,.63-4.64,2.15-4.65,5.55-.02,6.45-.04,12.9,.02,19.36,.01,1.14-.32,1.43-1.42,1.39-2.57-.08-5.15-.05-7.72,0-.84,.01-1.06-.26-1.06-1.08,.03-11.34,.02-22.69,0-34.03,0-.73,.15-1.04,.97-1.03,2.74,.05,5.49,.04,8.23,0,.8-.01,1,.27,.99,1.02-.04,2.2-.01,4.4-.01,6.6Z"/>
  <path d="M417.66,75.95c0-5.61,.02-11.21-.02-16.82,0-.95,.18-1.33,1.24-1.3,2.65,.08,5.31,.05,7.97,.01,.79-.01,1.11,.16,1.11,1.03-.03,11.34-.03,22.68,0,34.02,0,.84-.29,1.09-1.1,1.08-2.7-.03-5.4-.05-8.1,0-.95,.02-1.11-.4-1.11-1.22,.02-5.61,.01-11.21,.01-16.82Z"/>
  <path d="M428.73,48.34c.35,3.78-2.19,5.81-5.95,5.74-4.13-.08-5.92-1.81-5.92-5.94,0-3.8,1.94-5.68,5.99-5.63,3.17,.05,6.11,1.08,5.88,5.83Z"/>
  <path d="M288.7,94.78c-.32-4.07-2.9-7.06-6.86-8.1-1.8-.48-3.64-.7-5.5-.7-3.54-.01-7.09,0-10.63,0-.8,0-1.6-.04-2.37-.29-1.5-.49-2.15-1.81-1.67-3.45,.4-1.37,1.19-1.73,2.81-1.47,4.25,.67,8.49,.74,12.62-.65,4.43-1.49,7.15-4.55,7.69-9.25,.48-4.19-.48-7.97-4.01-10.71-.61-.47-1.27-.87-1.96-1.33,.51-.37,.94-.23,1.34-.23,1.86-.02,3.71-.02,5.57,0,.57,0,.97-.04,.96-.79-.03-2.02-.02-4.05,0-6.07,0-.54-.22-.75-.75-.74-2.07,.03-4.14-.07-6.2,.07-2.51,.17-4.05,1.89-4.17,4.4-.02,.38-.05,.76-.02,1.14,.07,.84-.16,1.05-1.08,.89-3.98-.69-7.98-.71-11.9,.4-4.3,1.21-7.32,3.87-8.24,8.35-.91,4.4-.26,8.48,3.38,11.63,.79,.68,1.74,1.12,2.8,1.82-1.48,.45-2.78,.78-3.91,1.51-2.27,1.45-3.19,3.52-2.79,6.16,.37,2.41,1.69,4.08,4.04,4.88,.24,.08,.48,.15,.72,.24,.16,.06,.28,.17,.28,.37,0,.26-.14,.37-.38,.41-.29,.05-.58,.1-.87,.17-3.26,.87-5.1,2.76-5.33,5.49-.32,3.74,1.04,6.13,4.36,7.57,.88,.38,1.81,.7,2.74,.95,4.41,1.18,8.93,1.14,13.43,.96,3.11-.13,6.21-.55,9.15-1.71,3.28-1.3,5.66-3.43,6.51-7,.39-1.62,.37-3.27,.24-4.9Zm-25.25-26.01c.22-3.16,1.79-4.7,4.98-4.88,.34-.02,.67-.03,.85-.04,1.17,.02,2.18,.02,3.14,.39,1.77,.7,2.79,1.97,2.9,3.9,.03,.5,.03,1.01,.02,1.51-.05,2.46-1.32,4.07-3.72,4.55-1.45,.29-2.94,.3-4.39-.02-2.66-.59-3.98-2.53-3.78-5.42Zm13.32,32.31c-.72,.22-1.47,.45-2.21,.47-3.66,.1-7.33,.41-10.97-.2-3.15-.53-4.32-2.82-3.01-5.54,.37-.77,.85-1.13,1.75-1.11,2.15,.06,4.3,.02,6.45,.02,0,.02,0,.04,0,.06,2.27,0,4.55-.08,6.82,.02,2.5,.12,3.67,1.36,3.54,3.48-.09,1.31-.92,2.34-2.37,2.79Z"/>
  <path d="M407.16,43.16c-2.62,.04-5.23,.07-7.85-.01-1.03-.03-1.25,.31-1.24,1.28,.04,6.03,.02,12.06,.01,18.09,0,.39,.13,.82-.11,1.21-.45-.12-.38-.54-.48-.82-.61-1.59-1.63-2.84-3-3.82-6.19-4.45-15.42-1.7-18.35,5.58-2.46,6.1-2.34,12.43-1.15,18.77,.58,3.08,1.85,5.88,4.13,8.1,4.61,4.48,15.35,5.2,18.98-3.41,0,1.62,.04,3.24-.02,4.86-.03,.79,.26,1.01,1.02,1,2.7-.04,5.4-.04,8.1,0,.83,.01,1.07-.25,1.07-1.09-.02-16.23-.02-32.47,0-48.7,0-.88-.33-1.04-1.11-1.03Zm-14.65,43.23c-4.22,.53-7.54-2.42-7.6-6.66-.04-2.57-.07-5.14,0-7.71,.08-2.72,1.19-4.96,3.79-6.07,2.62-1.11,5.21-.82,7.55,.85,1.28,.92,1.82,2.28,1.83,3.85,.01,1.77,0,3.54,0,5.31,0,1.43-.07,2.87,.01,4.3,.23,4.13-2.39,5.74-5.6,6.14Z"/>
  <path d="M324.67,85.94c-.38,.02-.77-.04-1.14,.01-1.13,.16-1.49-.23-1.49-1.42-.02-5.47,.3-10.96-.16-16.42-.39-4.63-2.7-7.97-7.09-9.74-3.54-1.43-7.25-1.47-10.96-1.21-4.56,.32-8.31,2.24-11.14,5.91-.49,.64-.53,1.02,.1,1.56,1.54,1.31,3.07,2.64,4.53,4.04,.69,.66,1.01,.53,1.54-.17,2.29-3.02,5.44-3.81,9.01-3.23,1.64,.26,2.81,1.22,3.46,2.81,.59,1.43,.42,2.9,.44,4.36,0,.66-.49,.57-.9,.57-1.77,0-3.54,0-5.31,0-3.11-.01-6.13,.44-8.97,1.78-5.96,2.8-7.79,10.62-3.97,16.01,3.33,4.7,12.27,5.03,16.58,1.9,1.71-1.25,2.7-2.95,3.31-5.02,.22,.13,.28,.15,.29,.18,.11,.31,.2,.63,.31,.95,.84,2.58,2.38,4.46,5.17,4.98,2.09,.39,4.21,.13,6.31,.19,.59,.02,.82-.25,.82-.84-.02-2.15-.02-4.3,0-6.45,0-.54-.2-.77-.74-.74Zm-15.04,.75c-2.04,1.07-4.21,1.13-6.37,.5-1.37-.4-2.12-1.4-2.2-2.9-.2-3.85,1.11-5.31,4.98-5.45,.71-.02,1.43,0,2.2,0,1.13,.29,2.98-.81,3.44,.54,1.08,3.13,.02,6.22-2.05,7.31Z"/>
  <path d="M207.75,87.91c0-1.96,0-2.04-1.9-1.94-1.18,.06-1.46-.32-1.45-1.46,.06-5.1,.06-10.2,.02-15.3-.04-5.52-3.04-9.59-8.3-11.22-4.03-1.24-8.13-1.21-12.25-.48-3.68,.65-6.46,2.74-8.77,5.55-.39,.47-.73,.87-.03,1.45,1.59,1.32,3.11,2.71,4.64,4.1,.6,.55,.98,.64,1.56-.1,1.92-2.45,4.43-3.61,7.61-3.42,3.42,.21,5.25,1.96,5.4,5.39,.02,.38-.05,.77,.01,1.14,.18,1.12-.27,1.41-1.38,1.4-3.41-.02-6.82-.21-10.2,.5-5.75,1.21-8.88,4.16-9.5,9.46-.51,4.35,1.15,8.52,5.15,10.52,6.49,3.24,13.71,.74,16.78-6.02,.2,.62,.33,1.01,.45,1.39,.97,2.97,2.94,4.79,6.12,5.03,1.76,.13,3.54,.02,5.31,.05,.65,0,.75-.34,.75-.88-.02-1.73,0-3.46,0-5.18Zm-19.57-.39c-.67,.01-1.36,0-2.01-.16-1.74-.41-2.67-1.57-2.75-3.32-.12-2.68,.52-3.96,2.33-4.68,1.82-.72,3.74-.51,5.63-.54,.08,0,.17,0,.25,0q2.65,0,2.65,2.63c.35,4.12-1.49,5.99-6.1,6.06Z"/>
  <path d="M495.82,71.61c-.82-5.44-3.05-9.96-8.09-12.7-3.36-1.83-7.01-2.14-10.7-1.76-6.16,.64-10.7,3.72-13,9.58-2.2,5.61-2.22,11.36-.42,17.08,1.66,5.26,5.24,8.67,10.52,10.18,4.37,1.25,8.75,.98,13.07-.36,2.66-.82,5.01-2.18,6.99-4.16,.48-.48,.66-.82,.12-1.45-1.33-1.53-2.59-3.11-3.79-4.73-.59-.8-.97-.86-1.69-.11-2.4,2.49-5.31,3.75-8.85,3.52-4.23-.28-6.95-3.01-7-7.12-.01-.84,.25-1.08,1.07-1.08,3.46,.04,6.92,.02,10.38,.02,3.5,0,7-.03,10.5,.02,.88,.01,1.17-.24,1.14-1.13-.07-1.93,.02-3.87-.27-5.8Zm-12.14,.89c-1.51,0-3.03,0-4.54,0-1.68,0-3.37-.05-5.05,.02-.92,.04-1.12-.32-1.1-1.17,.1-4.56,3.47-7.4,7.97-6.65,2.42,.4,4.19,2.66,4.47,5.71,0,.08,0,.17,.01,.25q.11,1.84-1.76,1.84Z"/>
  <g>
    <path d="M66.68,69.17c-2.19-1.68-5.38-2.75-8.93-2.75s-6.74,1.06-8.93,2.75c-2.73,2.1-.56,5.43,3.56,5.43h10.75c4.11,0,6.29-3.33,3.56-5.43Z"/>
    <path d="M109.01,43.22h0c-27.39-19.77-69.63-19.75-97,.05h0c-2.92,2.11-4.66,5.53-4.66,9.16v41.25c0,3.9,3.12,7.07,6.98,7.07H106.74c3.87,0,7.01-3.18,7.01-7.1V52.53c0-3.7-1.76-7.17-4.74-9.31Zm-3.02,32.44c0,2.04-1.66,3.7-3.7,3.7h-13.34c.04,.21,.06,.42,.06,.64,0,2.06-1.67,3.73-3.73,3.73s-3.73-1.67-3.73-3.73c0-.22,.02-.43,.06-.64h-6.69c-1.82,7.81-8.82,13.63-17.18,13.63s-15.37-5.82-17.18-13.63h-6.66c.04,.21,.06,.42,.06,.64,0,2.06-1.67,3.73-3.73,3.73s-3.73-1.67-3.73-3.73c0-.22,.02-.43,.06-.64h-7.76c-2.04,0-3.7-1.66-3.7-3.7v-.05c0-2.04,1.66-3.7,3.7-3.7h21.62c1.38-7.01,6.91-12.52,13.92-13.88v-6.96c0-2.06,1.67-3.73,3.73-3.73s3.73,1.67,3.73,3.73v7.1c6.69,1.58,11.91,6.96,13.25,13.74h27.23c2.04,0,3.7,1.66,3.7,3.7v.05Z"/>
  </g>
</svg>