<?xml version="1.0" encoding="UTF-8"?>
<svg id="Layer_1" data-name="Layer 1" xmlns="http://www.w3.org/2000/svg" viewBox="0 0 566 128">
  <path d="M169.11,66.07c.76-.83,1.18-1.81,1.82-2.66,2.58-3.43,6.17-4.12,10.08-3.51,4.68,.74,7.5,3.99,8.28,9.13,.2,1.31,.28,2.62,.28,3.94,0,6.83-.02,13.67,.02,20.5,0,.99-.25,1.31-1.26,1.28-2.4-.07-4.8-.07-7.2,0-.94,.02-1.22-.23-1.21-1.2,.04-6.51,.02-13.03,.02-19.55,0-1.25-.12-2.48-.51-3.66-.58-1.77-1.69-2.58-3.55-2.69-1.62-.1-3.2,.04-4.6,.98-1.41,.96-2.19,2.24-2.19,4.01,.03,6.91,0,13.83,.04,20.74,0,1.05-.27,1.39-1.34,1.36-2.44-.08-4.88-.05-7.32,0-.81,.01-1.13-.21-1.13-1.08,.02-15.35,.02-30.7,0-46.05,0-.88,.31-1.06,1.11-1.05,2.52,.04,5.04,.06,7.56,0,.94-.03,1.12,.31,1.11,1.17-.04,5.68-.02,11.35-.02,17.03,0,.44,0,.88,0,1.31Z"/>
  <path d="M245.06,66.21c.59-1.26,1.23-2.48,2.16-3.51,2.92-3.21,6.64-3.45,10.5-2.61,3.84,.84,5.87,3.63,6.89,7.24,.51,1.81,.74,3.67,.74,5.56,0,6.83-.03,13.66,.02,20.5,0,1.05-.27,1.39-1.34,1.36-2.36-.08-4.72-.09-7.07,0-1.17,.05-1.38-.4-1.37-1.45,.03-6.91,0-13.82-.02-20.74,0-1.01-.26-1.97-.67-2.89-.44-.99-1.19-1.63-2.21-1.86-1.84-.41-3.66-.31-5.35,.61-1.78,.97-2.56,2.54-2.56,4.54,0,6.79-.02,13.58,.03,20.38,0,1.1-.28,1.43-1.39,1.39-2.44-.08-4.88-.05-7.31-.01-.72,.01-.96-.2-.96-.95,.02-10.79,.02-21.58,0-32.36,0-.74,.21-.96,.95-.95,2.56,.04,5.12,.05,7.68,0,.89-.02,1.06,.33,1.03,1.11-.05,1.51-.02,3.01-.02,4.52,.1,.03,.2,.07,.3,.1Z"/>
  <path d="M516.65,77.96c.08,1.3-.09,2.85,.15,4.41,.46,2.98,1.89,4.79,4.29,5.25,3.12,.6,5.53-.46,7.02-3.07q1-1.76,2.86-.95c1.5,.65,2.99,1.33,4.51,1.93,.76,.3,.92,.65,.61,1.44-1.91,4.77-5.45,7.46-10.45,8.28-3.5,.57-6.93,.27-10.2-1.18-4.85-2.15-7.3-6.14-8.31-11.14-.93-4.58-.75-9.11,.81-13.56,1.96-5.59,6.77-9.24,12.68-9.57,3.94-.22,7.75,.12,11.07,2.59,1.94,1.44,3.35,3.28,4.28,5.51,.27,.64,.13,.91-.48,1.16-2.06,.86-4.12,1.73-6.15,2.66-.72,.33-.97,.23-1.27-.54-.83-2.18-2.37-3.55-4.81-3.72-2.32-.17-4.27,.42-5.53,2.55-.8,1.35-1,2.85-1.06,4.37-.04,1.12,0,2.24,0,3.61Z"/>
  <path d="M553.84,77.76c0,2.72,.03,5.43-.02,8.15-.02,.9,.17,1.29,1.17,1.23,1.39-.09,2.8,0,4.2-.03,.66-.02,.92,.18,.9,.88-.04,1.96-.02,3.92-.01,5.87,0,.47-.01,.89-.67,.87-2.75-.07-5.52,.23-8.24-.37-4.36-.96-6.87-3.91-6.94-8.38-.09-5.47-.07-10.95-.02-16.42,0-1.12-.23-1.57-1.43-1.49-1.06,.08-2.44,.47-3.13-.17-.76-.71-.19-2.11-.25-3.21-.05-1.04,.05-2.08-.03-3.11-.08-.96,.32-1.18,1.17-1.1,.59,.06,1.2,.04,1.8,0,1.53-.1,2.32-.77,2.64-2.28,.41-1.94,.17-3.9,.17-5.85,0-.88,.21-1.19,1.13-1.16,2.12,.07,4.24,.06,6.35,0,.92-.03,1.26,.2,1.23,1.19-.07,2.35,.01,4.71-.04,7.07-.02,.85,.26,1.1,1.09,1.07,1.56-.06,3.12,.02,4.68-.03,.82-.03,1.01,.27,.99,1.03-.05,1.88-.04,3.76,0,5.63,.02,.72-.21,.99-.95,.97-1.52-.05-3.04,.05-4.56-.04-1.04-.06-1.27,.33-1.25,1.29,.06,2.8,.02,5.59,.02,8.39Z"/>
  <path d="M356.48,67.73c.19-.54,.36-1.09,.56-1.63,1.59-4.25,5.14-5.9,9.41-5.62,.49,.03,.59,.28,.59,.69,0,2.52-.02,5.03,0,7.55,0,.76-.43,.81-1.01,.81-1.84,0-3.67-.04-5.49,.29-2.95,.54-4.24,1.97-4.25,4.98-.02,6.19-.03,12.39,.02,18.58,0,1.06-.28,1.38-1.34,1.35-2.44-.07-4.88-.05-7.31,0-.81,.01-1.13-.21-1.12-1.08,.02-10.75,.02-21.49,0-32.24,0-.75,.26-.95,.97-.94,2.64,.04,5.28,.03,7.91,0,.69,0,.89,.23,.88,.9-.03,2.1-.01,4.21-.01,6.32l.19,.04Z"/>
  <path d="M455.93,67.7c.71-1.38,1.18-2.8,2.11-4.01,2.07-2.68,4.91-3.38,8.1-3.21,.41,.02,.56,.2,.56,.59,0,2.6-.01,5.2,0,7.79,0,.78-.52,.66-.98,.66-1.8,.03-3.59-.06-5.38,.29-3.14,.6-4.4,2.04-4.41,5.26-.02,6.12-.03,12.23,.02,18.35,0,1.08-.3,1.35-1.35,1.32-2.44-.08-4.88-.05-7.32,0-.79,.01-1.01-.25-1.01-1.03,.02-10.75,.02-21.5,0-32.26,0-.7,.15-.99,.92-.98,2.6,.04,5.2,.04,7.8,0,.76-.01,.95,.26,.94,.97-.04,2.09-.01,4.17-.01,6.26Z"/>
  <path d="M427.66,77.64c0-5.31,.02-10.63-.02-15.94,0-.9,.17-1.26,1.17-1.23,2.52,.08,5.04,.05,7.56,.01,.75-.01,1.05,.15,1.05,.98-.03,10.75-.02,21.5,0,32.25,0,.8-.28,1.04-1.04,1.03-2.56-.03-5.12-.04-7.68,0-.9,.02-1.05-.38-1.05-1.15,.02-5.31,.01-10.63,.01-15.94Z"/>
  <path d="M438.15,51.47c.33,3.59-2.07,5.51-5.64,5.44-3.91-.08-5.61-1.72-5.61-5.63,0-3.6,1.83-5.39,5.68-5.33,3,.04,5.79,1.02,5.57,5.52Z"/>
  <path d="M305.42,95.5c-.31-3.86-2.75-6.69-6.51-7.68-1.71-.45-3.45-.66-5.21-.67-3.36-.01-6.72,0-10.07,0-.76,0-1.52-.04-2.25-.27-1.42-.46-2.03-1.72-1.59-3.27,.37-1.3,1.13-1.64,2.67-1.39,4.02,.64,8.05,.7,11.96-.62,4.2-1.41,6.78-4.31,7.29-8.77,.45-3.98-.45-7.55-3.8-10.15-.57-.45-1.2-.82-1.86-1.27,.48-.35,.89-.22,1.27-.22,1.76-.02,3.52-.02,5.28,0,.54,0,.92-.04,.91-.75-.03-1.92-.02-3.84,0-5.75,0-.52-.21-.71-.71-.7-1.96,.02-3.92-.07-5.87,.07-2.38,.16-3.83,1.79-3.96,4.17-.02,.36-.05,.72-.01,1.08,.07,.8-.15,1-1.02,.85-3.78-.66-7.56-.67-11.28,.37-4.07,1.15-6.94,3.66-7.81,7.91-.86,4.17-.25,8.04,3.2,11.02,.75,.65,1.65,1.06,2.65,1.73-1.41,.42-2.63,.74-3.71,1.43-2.15,1.38-3.03,3.34-2.64,5.84,.35,2.28,1.61,3.87,3.83,4.62,.23,.08,.46,.14,.68,.23,.15,.06,.27,.16,.27,.35,0,.24-.14,.35-.36,.39-.27,.05-.55,.09-.82,.16-3.09,.82-4.83,2.62-5.05,5.2-.3,3.54,.99,5.81,4.14,7.18,.84,.36,1.71,.66,2.6,.9,4.18,1.12,8.47,1.08,12.73,.91,2.95-.12,5.89-.52,8.67-1.62,3.11-1.23,5.37-3.25,6.17-6.64,.37-1.54,.35-3.1,.23-4.65Zm-23.94-24.66c.21-3,1.7-4.46,4.72-4.62,.32-.02,.64-.03,.81-.04,1.11,.02,2.07,.02,2.98,.37,1.68,.66,2.64,1.87,2.75,3.7,.03,.48,.03,.96,.02,1.44-.05,2.33-1.25,3.86-3.53,4.31-1.37,.27-2.79,.29-4.16-.02-2.52-.56-3.77-2.39-3.58-5.14Zm12.62,30.62c-.68,.21-1.4,.43-2.1,.45-3.47,.1-6.95,.39-10.4-.19-2.99-.5-4.1-2.67-2.85-5.25,.35-.73,.81-1.07,1.66-1.05,2.04,.06,4.07,.02,6.11,.02,0,.02,0,.04,0,.06,2.16,0,4.32-.08,6.47,.02,2.37,.11,3.48,1.29,3.35,3.3-.08,1.25-.88,2.22-2.25,2.64Z"/>
  <path d="M417.71,46.57c-2.48,.04-4.96,.06-7.44-.01-.98-.03-1.19,.29-1.18,1.21,.04,5.72,.02,11.43,.01,17.15,0,.37,.12,.77-.11,1.14-.43-.12-.36-.51-.46-.78-.57-1.51-1.55-2.69-2.84-3.62-5.87-4.22-14.61-1.61-17.4,5.29-2.33,5.78-2.22,11.78-1.09,17.79,.55,2.91,1.75,5.58,3.91,7.68,4.37,4.25,14.55,4.93,18-3.23,0,1.54,.04,3.07-.02,4.61-.02,.75,.25,.95,.97,.94,2.56-.03,5.12-.04,7.68,0,.79,.01,1.02-.24,1.01-1.03-.02-15.39-.02-30.77,0-46.16,0-.83-.31-.99-1.05-.98Zm-13.89,40.98c-4,.5-7.14-2.29-7.2-6.32-.04-2.44-.06-4.88,0-7.31,.08-2.58,1.13-4.7,3.59-5.75,2.48-1.06,4.94-.78,7.16,.81,1.22,.87,1.73,2.16,1.74,3.65,0,1.68,0,3.36,0,5.03,0,1.36-.06,2.72,.01,4.08,.22,3.91-2.26,5.44-5.31,5.82Z"/>
  <path d="M339.51,87.11c-.36,.02-.73-.04-1.08,.01-1.07,.15-1.41-.22-1.41-1.35-.02-5.19,.29-10.39-.15-15.57-.37-4.39-2.56-7.56-6.72-9.23-3.35-1.35-6.87-1.39-10.39-1.15-4.32,.3-7.88,2.12-10.56,5.6-.46,.6-.5,.97,.1,1.48,1.46,1.24,2.91,2.5,4.29,3.82,.65,.62,.96,.5,1.46-.16,2.17-2.86,5.15-3.61,8.54-3.06,1.55,.25,2.66,1.16,3.28,2.67,.56,1.35,.4,2.75,.42,4.13,0,.62-.46,.54-.85,.54-1.68,0-3.36,0-5.04,0-2.95-.01-5.81,.42-8.5,1.68-5.65,2.66-7.39,10.06-3.77,15.18,3.15,4.46,11.63,4.77,15.72,1.8,1.62-1.18,2.56-2.79,3.13-4.76,.21,.13,.26,.14,.27,.17,.1,.3,.19,.6,.29,.9,.79,2.45,2.26,4.22,4.9,4.72,1.98,.37,3.99,.12,5.98,.18,.56,.02,.78-.24,.77-.8-.02-2.04-.02-4.07,0-6.11,0-.52-.19-.73-.7-.7Zm-14.25,.71c-1.93,1.01-3.99,1.07-6.04,.47-1.3-.38-2.01-1.33-2.08-2.75-.19-3.65,1.05-5.04,4.72-5.16,.68-.02,1.36,0,2.08,0,1.07,.27,2.82-.76,3.27,.51,1.03,2.97,.02,5.9-1.95,6.93Z"/>
  <path d="M228.68,88.98c0-1.86,0-1.93-1.8-1.84-1.12,.06-1.38-.3-1.37-1.38,.06-4.83,.05-9.67,.02-14.5-.04-5.23-2.89-9.09-7.87-10.63-3.82-1.18-7.71-1.14-11.61-.45-3.49,.62-6.13,2.59-8.32,5.26-.37,.45-.69,.83-.03,1.38,1.5,1.25,2.95,2.57,4.4,3.89,.57,.52,.93,.61,1.48-.1,1.82-2.33,4.2-3.43,7.21-3.24,3.24,.2,4.98,1.86,5.12,5.11,.02,.36-.04,.73,.01,1.08,.17,1.06-.25,1.34-1.31,1.33-3.23-.02-6.46-.2-9.67,.47-5.45,1.14-8.42,3.94-9.01,8.97-.48,4.13,1.09,8.08,4.89,9.98,6.15,3.07,12.99,.7,15.9-5.71,.19,.59,.31,.96,.43,1.32,.92,2.82,2.79,4.54,5.8,4.77,1.67,.12,3.36,.02,5.03,.04,.62,0,.72-.32,.71-.83-.02-1.64,0-3.28,0-4.91Zm-18.55-.37c-.64,.01-1.29,0-1.91-.15-1.65-.39-2.53-1.49-2.61-3.14-.12-2.54,.49-3.75,2.21-4.43,1.73-.69,3.54-.48,5.33-.52,.08,0,.16,0,.24,0q2.51,0,2.51,2.49c.33,3.9-1.41,5.68-5.78,5.75Z"/>
  <path d="M501.74,73.53c-.77-5.15-2.89-9.44-7.66-12.04-3.18-1.73-6.65-2.03-10.14-1.66-5.84,.6-10.14,3.53-12.32,9.08-2.09,5.32-2.11,10.77-.4,16.19,1.57,4.98,4.96,8.22,9.97,9.65,4.14,1.19,8.3,.92,12.39-.34,2.52-.78,4.75-2.07,6.63-3.94,.46-.46,.63-.78,.11-1.37-1.26-1.45-2.45-2.95-3.6-4.49-.56-.76-.92-.81-1.6-.1-2.28,2.36-5.03,3.56-8.39,3.33-4.01-.27-6.58-2.85-6.63-6.74,0-.79,.24-1.03,1.02-1.02,3.28,.04,6.56,.02,9.84,.01,3.32,0,6.64-.03,9.96,.02,.83,.01,1.11-.23,1.08-1.08-.06-1.83,.02-3.67-.25-5.5Zm-11.51,.84c-1.44,0-2.87,0-4.31,0-1.6,0-3.19-.05-4.78,.02-.87,.03-1.06-.3-1.04-1.11,.1-4.33,3.29-7.02,7.55-6.31,2.29,.38,3.97,2.52,4.24,5.41,0,.08,0,.16,.01,.24q.11,1.74-1.67,1.74Z"/>
  <g>
    <path d="M80.62,69.85c-2.79-2.15-6.86-3.5-11.39-3.5s-8.6,1.35-11.39,3.5c-3.49,2.68-.71,6.93,4.54,6.93h13.71c5.25,0,8.03-4.25,4.54-6.93Z"/>
    <path d="M134.61,36.76h0c-34.93-25.22-88.81-25.19-123.71,.07h0c-3.73,2.7-5.94,7.05-5.94,11.69v52.61c0,4.98,3.98,9.01,8.9,9.01h117.86c4.93,0,8.94-4.05,8.94-9.05V48.64c0-4.72-2.25-9.14-6.04-11.88Zm-3.86,41.37c0,2.61-2.11,4.72-4.72,4.72h-17.01c.05,.27,.08,.54,.08,.82,0,2.62-2.13,4.75-4.75,4.75s-4.75-2.13-4.75-4.75c0-.28,.03-.55,.08-.82h-8.53c-2.32,9.96-11.25,17.39-21.92,17.39s-19.6-7.43-21.92-17.39h-8.49c.05,.27,.08,.54,.08,.82,0,2.62-2.13,4.75-4.75,4.75s-4.75-2.13-4.75-4.75c0-.28,.03-.55,.08-.82h-9.89c-2.61,0-4.72-2.11-4.72-4.72v-.07c0-2.61,2.11-4.72,4.72-4.72h27.58c1.76-8.93,8.81-15.97,17.76-17.71v-8.87c0-2.62,2.13-4.75,4.75-4.75s4.75,2.13,4.75,4.75v9.06c8.53,2.01,15.19,8.87,16.9,17.52h34.73c2.61,0,4.72,2.11,4.72,4.72v.07Z"/>
  </g>
</svg>